<svg width="77" height="40" viewBox="0 0 77 40" fill="currentColor" xmlns="http://www.w3.org/2000/svg">
<path d="M38.5099 1C16.5366 1 2.02631 8.68044 2.02631 20C2.02631 31.2046 16.5366 39 38.5099 39C60.5822 39 74.9935 31.2046 74.9935 20C74.9737 8.68044 60.5822 1 38.5099 1ZM38.5099 37.2379C17.9025 37.2379 4.10486 30.2661 4.10486 20C4.10486 9.61895 17.8827 2.7621 38.5099 2.7621C59.236 2.7621 72.8951 9.61895 72.8951 20C72.8951 30.2661 59.236 37.2379 38.5099 37.2379ZM38.5099 4.42843C19.11 4.42843 6.18342 10.6724 6.18342 20C6.18342 29.3276 19.11 35.5716 38.5099 35.5716C57.9097 35.5716 70.8364 29.3085 70.8364 20C70.8364 10.6724 57.8899 4.42843 38.5099 4.42843ZM38.5099 35.2268C19.3674 35.2268 6.53974 29.0978 6.53974 20C6.53974 10.9214 19.3476 4.77319 38.5099 4.77319C57.6524 4.77319 70.48 10.9022 70.48 20C70.4602 29.0978 57.6524 35.2268 38.5099 35.2268Z"/>
<path d="M19.2882 14.5796V18.6401H15.626V14.5796H11.845V25.4395H15.626V21.3599H19.2882V25.4395H23.0692V14.5796H19.2882Z"/>
<path d="M65.155 14.5796H61.275L58.8401 18.6401H57.7118V14.5796H53.9308V25.4395H57.7316L57.7118 21.3599H58.8401L61.275 25.4395H65.155L61.9085 20L65.155 14.5796Z"/>
<path d="M48.3286 14.5796L45.1019 19.9808L41.8752 14.5796H38.3515V25.4395H41.8752V20.2681L44.2902 24.3478H45.8937L48.3286 20.2681V25.4395H51.8324V14.5796H48.3286Z"/>
<path d="M26.5335 14.5796L26.3355 20C26.2761 21.5323 25.9594 22.7198 24.8904 22.7198H24.4747V25.4395H25.9594C28.612 25.4395 29.582 23.122 29.7008 20.1149L29.7998 17.2802H32.4722V25.4204H36.2532V14.5796H26.5335Z"/>
</svg>
