<svg width="16" height="16" viewBox="0 0 16 16" fill="currentColor" xmlns="http://www.w3.org/2000/svg">
<path d="M3.28595 3.28595C4.53619 2.03571 6.23188 1.33333 7.99999 1.33333C9.76811 1.33333 11.4638 2.03571 12.714 3.28595C13.9643 4.53619 14.6667 6.23188 14.6667 7.99999C14.6667 8.87547 14.4942 9.74238 14.1592 10.5512C13.8242 11.3601 13.3331 12.095 12.714 12.714C12.095 13.3331 11.3601 13.8242 10.5512 14.1592C9.74238 14.4942 8.87547 14.6667 7.99999 14.6667C7.12452 14.6667 6.25761 14.4942 5.44877 14.1592C4.63993 13.8242 3.90501 13.3331 3.28595 12.714C2.66689 12.095 2.17583 11.3601 1.8408 10.5512C1.50577 9.74238 1.33333 8.87547 1.33333 7.99999C1.33333 6.23188 2.03571 4.53619 3.28595 3.28595ZM7.99999 2.66666C6.58551 2.66666 5.22895 3.22856 4.22876 4.22876C3.22856 5.22895 2.66666 6.58551 2.66666 7.99999C2.66666 8.70038 2.80461 9.3939 3.07264 10.041C3.34066 10.688 3.73351 11.276 4.22876 11.7712C4.724 12.2665 5.31195 12.6593 5.95902 12.9274C6.60609 13.1954 7.29961 13.3333 7.99999 13.3333C8.70038 13.3333 9.3939 13.1954 10.041 12.9274C10.688 12.6593 11.276 12.2665 11.7712 11.7712C12.2665 11.276 12.6593 10.688 12.9274 10.041C13.1954 9.3939 13.3333 8.70038 13.3333 7.99999C13.3333 6.58551 12.7714 5.22895 11.7712 4.22876C10.771 3.22856 9.41448 2.66666 7.99999 2.66666Z"/>
<path d="M8 3.99999C8.36819 3.99999 8.66666 4.29847 8.66666 4.66666V7.72385L10.4714 9.52859C10.7317 9.78894 10.7317 10.211 10.4714 10.4714C10.2111 10.7317 9.78894 10.7317 9.52859 10.4714L7.52859 8.4714C7.40357 8.34637 7.33333 8.17681 7.33333 7.99999V4.66666C7.33333 4.29847 7.63181 3.99999 8 3.99999Z"/>
</svg>
