<svg width="24" height="24" viewBox="0 0 24 24" fill="currentColor" xmlns="http://www.w3.org/2000/svg">
<path d="M3.87868 5.87868C4.44129 5.31607 5.20435 5 6 5H12C12.5523 5 13 5.44772 13 6C13 6.55228 12.5523 7 12 7H6C5.73478 7 5.48043 7.10536 5.29289 7.29289C5.10536 7.48043 5 7.73478 5 8V18C5 18.2652 5.10536 18.5196 5.29289 18.7071C5.48043 18.8946 5.73478 19 6 19H16C16.2652 19 16.5196 18.8946 16.7071 18.7071C16.8946 18.5196 17 18.2652 17 18V12C17 11.4477 17.4477 11 18 11C18.5523 11 19 11.4477 19 12V18C19 18.7957 18.6839 19.5587 18.1213 20.1213C17.5587 20.6839 16.7957 21 16 21H6C5.20435 21 4.44129 20.6839 3.87868 20.1213C3.31607 19.5587 3 18.7956 3 18V8C3 7.20435 3.31607 6.44129 3.87868 5.87868Z"/>
<path d="M20.7071 3.29289C21.0976 3.68342 21.0976 4.31658 20.7071 4.70711L11.7071 13.7071C11.3166 14.0976 10.6834 14.0976 10.2929 13.7071C9.90237 13.3166 9.90237 12.6834 10.2929 12.2929L19.2929 3.29289C19.6834 2.90237 20.3166 2.90237 20.7071 3.29289Z"/>
<path d="M14 4C14 3.44772 14.4477 3 15 3H20C20.5523 3 21 3.44772 21 4V9C21 9.55228 20.5523 10 20 10C19.4477 10 19 9.55228 19 9V5H15C14.4477 5 14 4.55228 14 4Z"/>
</svg>
