<svg width="24" height="24" viewBox="0 0 24 24" fill="currentColor" xmlns="http://www.w3.org/2000/svg">
<path d="M5.4969 9.37015C6.79728 6.10612 10.3233 4.34443 13.7441 5.22161C14.9747 5.5382 16.0959 6.18376 16.9874 7.08908C17.8791 7.99448 18.5075 9.12552 18.8052 10.3609C19.1029 11.5963 19.0587 12.8894 18.6773 14.1016C18.296 15.3138 17.5918 16.3993 16.6404 17.2417C15.689 18.0841 14.5263 18.6516 13.2769 18.8834C12.0274 19.1152 10.7385 19.0025 9.54821 18.5574C8.35796 18.1123 7.31131 17.3516 6.52053 16.3569C5.72975 15.3622 5.22466 14.171 5.05942 12.911C4.98761 12.3634 4.48548 11.9777 3.93789 12.0495C3.39029 12.1213 3.00459 12.6235 3.0764 13.1711C3.28884 14.791 3.93825 16.3226 4.95497 17.6015C5.97169 18.8804 7.31737 19.8585 8.8477 20.4307C10.378 21.003 12.0353 21.1479 13.6417 20.8498C15.2481 20.5518 16.7431 19.8221 17.9663 18.739C19.1895 17.656 20.0948 16.2603 20.5851 14.7018C21.0755 13.1433 21.1323 11.4807 20.7495 9.89236C20.3668 8.304 19.5589 6.84981 18.4124 5.68572C17.266 4.52164 15.8243 3.69158 14.242 3.28457C9.86496 2.16196 5.3185 4.41409 3.63892 8.62994C3.43452 9.14301 3.68474 9.72463 4.19781 9.92904C4.71087 10.1334 5.2925 9.88322 5.4969 9.37015Z"/>
<path d="M4.00092 3C3.44863 3 3.00092 3.44772 3.00092 4V9C3.00092 9.55229 3.44863 10 4.00092 10H9.00092C9.5532 10 10.0009 9.55229 10.0009 9C10.0009 8.44772 9.5532 8 9.00092 8H5.00092V4C5.00092 3.44772 4.5532 3 4.00092 3Z"/>
</svg>
