<svg width="24" height="24" viewBox="0 0 24 24" fill="currentColor" xmlns="http://www.w3.org/2000/svg">
<path d="M18.504 9.37011C17.2036 6.10607 13.6776 4.34438 10.2568 5.22156C9.02622 5.53815 7.90505 6.18372 7.01347 7.08904C6.12181 7.99444 5.49343 9.12548 5.19572 10.3609C4.89802 11.5962 4.94222 12.8894 5.32358 14.1015C5.70494 15.3137 6.40908 16.3992 7.36047 17.2416C8.31187 18.084 9.47463 18.6516 10.7241 18.8834C11.9735 19.1152 13.2625 19.0025 14.4527 18.5574C15.643 18.1123 16.6896 17.3516 17.4804 16.3569C18.2712 15.3622 18.7763 14.1709 18.9415 12.911C19.0133 12.3634 19.5154 11.9777 20.063 12.0495C20.6106 12.1213 20.9963 12.6234 20.9245 13.171C20.7121 14.791 20.0627 16.3225 19.0459 17.6015C18.0292 18.8804 16.6835 19.8584 15.1532 20.4307C13.6229 21.0029 11.9657 21.1478 10.3592 20.8498C8.75284 20.5518 7.25786 19.8221 6.03463 18.739C4.81141 17.6559 3.90609 16.2603 3.41577 14.7018C2.92545 13.1432 2.86862 11.4807 3.25138 9.89231C3.63415 8.30396 4.44206 6.84976 5.58848 5.68568C6.7349 4.52159 8.17657 3.69153 9.75889 3.28453C14.136 2.16191 18.6824 4.41404 20.362 8.62989C20.5664 9.14296 20.3162 9.72459 19.8031 9.92899C19.29 10.1334 18.7084 9.88317 18.504 9.37011Z"/>
<path d="M20 3C20.5523 3 21 3.44771 21 4V9C21 9.55228 20.5523 10 20 10H15C14.4477 10 14 9.55228 14 9C14 8.44771 14.4477 8 15 8H19V4C19 3.44771 19.4477 3 20 3Z"/>
</svg>
