<svg width="24" height="24" viewBox="0 0 24 24" fill="currentColor" xmlns="http://www.w3.org/2000/svg">
<path d="M7.5 6.5C6.23431 6.5 4.92407 6.91914 3.5547 7.83205C3.09517 8.1384 2.4743 8.01423 2.16795 7.5547C1.8616 7.09517 1.98577 6.4743 2.4453 6.16795C4.07593 5.08086 5.76569 4.5 7.5 4.5C9.23431 4.5 10.9241 5.08086 12.5547 6.16795C13.9241 7.08086 15.2343 7.5 16.5 7.5C17.7657 7.5 19.0759 7.08086 20.4453 6.16795C20.9048 5.8616 21.5257 5.98577 21.832 6.4453C22.1384 6.90483 22.0142 7.5257 21.5547 7.83205C19.9241 8.91914 18.2343 9.5 16.5 9.5C14.7657 9.5 13.0759 8.91914 11.4453 7.83205C10.0759 6.91914 8.76569 6.5 7.5 6.5Z"/>
<path d="M7.5 16.5C6.23431 16.5 4.92407 16.9191 3.5547 17.8321C3.09517 18.1384 2.4743 18.0142 2.16795 17.5547C1.8616 17.0952 1.98577 16.4743 2.4453 16.1679C4.07593 15.0809 5.76569 14.5 7.5 14.5C9.23431 14.5 10.9241 15.0809 12.5547 16.1679C13.9241 17.0809 15.2343 17.5 16.5 17.5C17.7657 17.5 19.0759 17.0809 20.4453 16.1679C20.9048 15.8616 21.5257 15.9858 21.832 16.4453C22.1384 16.9048 22.0142 17.5257 21.5547 17.8321C19.9241 18.9191 18.2343 19.5 16.5 19.5C14.7657 19.5 13.0759 18.9191 11.4453 17.8321C10.0759 16.9191 8.76569 16.5 7.5 16.5Z"/>
<path d="M7.5 11.5C6.23431 11.5 4.92407 11.9191 3.5547 12.8321C3.09517 13.1384 2.4743 13.0142 2.16795 12.5547C1.8616 12.0952 1.98577 11.4743 2.4453 11.1679C4.07593 10.0809 5.76569 9.5 7.5 9.5C9.23431 9.5 10.9241 10.0809 12.5547 11.1679C13.9241 12.0809 15.2343 12.5 16.5 12.5C17.7657 12.5 19.0759 12.0809 20.4453 11.1679C20.9048 10.8616 21.5257 10.9858 21.832 11.4453C22.1384 11.9048 22.0142 12.5257 21.5547 12.8321C19.9241 13.9191 18.2343 14.5 16.5 14.5C14.7657 14.5 13.0759 13.9191 11.4453 12.8321C10.0759 11.9191 8.76569 11.5 7.5 11.5Z"/>
</svg>
