<svg width="20" height="20" viewBox="0 0 20 20" fill="currentColor" xmlns="http://www.w3.org/2000/svg">
<path d="M15.5893 4.41074C15.9147 4.73618 15.9147 5.26382 15.5893 5.58925L5.58926 15.5893C5.26382 15.9147 4.73619 15.9147 4.41075 15.5893C4.08531 15.2638 4.08531 14.7362 4.41075 14.4107L14.4107 4.41074C14.7362 4.0853 15.2638 4.0853 15.5893 4.41074Z"/>
<path d="M4.41075 4.41074C4.73619 4.0853 5.26382 4.0853 5.58926 4.41074L15.5893 14.4107C15.9147 14.7362 15.9147 15.2638 15.5893 15.5893C15.2638 15.9147 14.7362 15.9147 14.4107 15.5893L4.41075 5.58925C4.08531 5.26382 4.08531 4.73618 4.41075 4.41074Z"/>
</svg>
